<?xml version="1.0" encoding="UTF-8" standalone="no"?>
<!DOCTYPE svg PUBLIC "-//W3C//DTD SVG 1.1//EN"
 "http://www.w3.org/Graphics/SVG/1.1/DTD/svg11.dtd">
<!-- Generated by graphviz version 2.38.0 (20140413.2041)
 -->
<!-- Title: Tree Pages: 1 -->
<svg width="1614pt" height="316pt"
 viewBox="0.00 0.00 1614.04 316.00" xmlns="http://www.w3.org/2000/svg" xmlns:xlink="http://www.w3.org/1999/xlink">
<g id="graph0" class="graph" transform="scale(1 1) rotate(0) translate(4 312)">
<title>Tree</title>
<polygon fill="white" stroke="none" points="-4,4 -4,-312 1610.04,-312 1610.04,4 -4,4"/>
<!-- 0 -->
<g id="node1" class="node"><title>0</title>
<polygon fill="none" stroke="black" points="854.693,-308 707.344,-308 707.344,-258 854.693,-258 854.693,-308"/>
<text text-anchor="middle" x="781.019" y="-292.8" font-family="Times,serif" font-size="14.00">X[18] &lt;= 56.6403</text>
<text text-anchor="middle" x="781.019" y="-278.8" font-family="Times,serif" font-size="14.00">gini = 0.662353238227</text>
<text text-anchor="middle" x="781.019" y="-264.8" font-family="Times,serif" font-size="14.00">samples = 178</text>
</g>
<!-- 1 -->
<g id="node2" class="node"><title>1</title>
<polygon fill="none" stroke="black" points="652.181,-222 505.856,-222 505.856,-172 652.181,-172 652.181,-222"/>
<text text-anchor="middle" x="579.019" y="-206.8" font-family="Times,serif" font-size="14.00">X[5] &lt;= 48.8500</text>
<text text-anchor="middle" x="579.019" y="-192.8" font-family="Times,serif" font-size="14.00">gini = 0.598161168199</text>
<text text-anchor="middle" x="579.019" y="-178.8" font-family="Times,serif" font-size="14.00">samples = 43</text>
</g>
<!-- 0&#45;&gt;1 -->
<g id="edge1" class="edge"><title>0&#45;&gt;1</title>
<path fill="none" stroke="black" d="M723.133,-257.929C699.15,-247.956 671.174,-236.322 646.285,-225.972"/>
<polygon fill="black" stroke="black" points="647.489,-222.683 636.912,-222.075 644.802,-229.146 647.489,-222.683"/>
</g>
<!-- 8 -->
<g id="node9" class="node"><title>8</title>
<polygon fill="none" stroke="black" points="1080.24,-222 899.793,-222 899.793,-172 1080.24,-172 1080.24,-222"/>
<text text-anchor="middle" x="990.019" y="-206.8" font-family="Times,serif" font-size="14.00">X[10] &lt;= 45971775488.0000</text>
<text text-anchor="middle" x="990.019" y="-192.8" font-family="Times,serif" font-size="14.00">gini = 0.578765432099</text>
<text text-anchor="middle" x="990.019" y="-178.8" font-family="Times,serif" font-size="14.00">samples = 135</text>
</g>
<!-- 0&#45;&gt;8 -->
<g id="edge8" class="edge"><title>0&#45;&gt;8</title>
<path fill="none" stroke="black" d="M840.91,-257.929C865.833,-247.912 894.925,-236.219 920.761,-225.835"/>
<polygon fill="black" stroke="black" points="922.145,-229.051 930.119,-222.075 919.535,-222.556 922.145,-229.051"/>
</g>
<!-- 2 -->
<g id="node3" class="node"><title>2</title>
<polygon fill="none" stroke="black" points="349.693,-136 202.344,-136 202.344,-86 349.693,-86 349.693,-136"/>
<text text-anchor="middle" x="276.019" y="-120.8" font-family="Times,serif" font-size="14.00">X[14] &lt;= 0.4368</text>
<text text-anchor="middle" x="276.019" y="-106.8" font-family="Times,serif" font-size="14.00">gini = 0.685185185185</text>
<text text-anchor="middle" x="276.019" y="-92.8" font-family="Times,serif" font-size="14.00">samples = 18</text>
</g>
<!-- 1&#45;&gt;2 -->
<g id="edge2" class="edge"><title>1&#45;&gt;2</title>
<path fill="none" stroke="black" d="M505.671,-175.666C461.614,-163.452 405.416,-147.873 359.64,-135.182"/>
<polygon fill="black" stroke="black" points="360.313,-131.737 349.741,-132.438 358.443,-138.482 360.313,-131.737"/>
</g>
<!-- 5 -->
<g id="node6" class="node"><title>5</title>
<polygon fill="none" stroke="black" points="634.244,-136 523.793,-136 523.793,-86 634.244,-86 634.244,-136"/>
<text text-anchor="middle" x="579.019" y="-120.8" font-family="Times,serif" font-size="14.00">X[8] &lt;= 21.9445</text>
<text text-anchor="middle" x="579.019" y="-106.8" font-family="Times,serif" font-size="14.00">gini = 0.1504</text>
<text text-anchor="middle" x="579.019" y="-92.8" font-family="Times,serif" font-size="14.00">samples = 25</text>
</g>
<!-- 1&#45;&gt;5 -->
<g id="edge5" class="edge"><title>1&#45;&gt;5</title>
<path fill="none" stroke="black" d="M579.019,-171.704C579.019,-163.781 579.019,-154.829 579.019,-146.314"/>
<polygon fill="black" stroke="black" points="582.519,-146.242 579.019,-136.242 575.519,-146.242 582.519,-146.242"/>
</g>
<!-- 3 -->
<g id="node4" class="node"><title>3</title>
<polygon fill="none" stroke="black" points="172.056,-50 -0.0185587,-50 -0.0185587,-0 172.056,-0 172.056,-50"/>
<text text-anchor="middle" x="86.0186" y="-34.8" font-family="Times,serif" font-size="14.00">gini = 0.4852</text>
<text text-anchor="middle" x="86.0186" y="-20.8" font-family="Times,serif" font-size="14.00">samples = 13</text>
<text text-anchor="middle" x="86.0186" y="-6.8" font-family="Times,serif" font-size="14.00">value = [ 0. &#160;0. &#160;9. &#160;2. &#160;1. &#160;1.]</text>
</g>
<!-- 2&#45;&gt;3 -->
<g id="edge3" class="edge"><title>2&#45;&gt;3</title>
<path fill="none" stroke="black" d="M221.572,-85.929C199.212,-76.0436 173.163,-64.5268 149.908,-54.2461"/>
<polygon fill="black" stroke="black" points="151.034,-50.917 140.473,-50.0745 148.204,-57.3192 151.034,-50.917"/>
</g>
<!-- 4 -->
<g id="node5" class="node"><title>4</title>
<polygon fill="none" stroke="black" points="362.056,-50 189.981,-50 189.981,-0 362.056,-0 362.056,-50"/>
<text text-anchor="middle" x="276.019" y="-34.8" font-family="Times,serif" font-size="14.00">gini = 0.7200</text>
<text text-anchor="middle" x="276.019" y="-20.8" font-family="Times,serif" font-size="14.00">samples = 5</text>
<text text-anchor="middle" x="276.019" y="-6.8" font-family="Times,serif" font-size="14.00">value = [ 0. &#160;2. &#160;0. &#160;1. &#160;1. &#160;1.]</text>
</g>
<!-- 2&#45;&gt;4 -->
<g id="edge4" class="edge"><title>2&#45;&gt;4</title>
<path fill="none" stroke="black" d="M276.019,-85.7037C276.019,-77.7808 276.019,-68.829 276.019,-60.3136"/>
<polygon fill="black" stroke="black" points="279.519,-60.2416 276.019,-50.2417 272.519,-60.2417 279.519,-60.2416"/>
</g>
<!-- 6 -->
<g id="node7" class="node"><title>6</title>
<polygon fill="none" stroke="black" points="576.056,-50 379.981,-50 379.981,-0 576.056,-0 576.056,-50"/>
<text text-anchor="middle" x="478.019" y="-34.8" font-family="Times,serif" font-size="14.00">gini = 0.0799</text>
<text text-anchor="middle" x="478.019" y="-20.8" font-family="Times,serif" font-size="14.00">samples = 24</text>
<text text-anchor="middle" x="478.019" y="-6.8" font-family="Times,serif" font-size="14.00">value = [ &#160;0. &#160;23. &#160;&#160;1. &#160;&#160;0. &#160;&#160;0. &#160;&#160;0.]</text>
</g>
<!-- 5&#45;&gt;6 -->
<g id="edge6" class="edge"><title>5&#45;&gt;6</title>
<path fill="none" stroke="black" d="M550.076,-85.929C539.088,-76.7905 526.424,-66.2578 514.807,-56.5963"/>
<polygon fill="black" stroke="black" points="516.892,-53.778 506.965,-50.0745 512.416,-59.1599 516.892,-53.778"/>
</g>
<!-- 7 -->
<g id="node8" class="node"><title>7</title>
<polygon fill="none" stroke="black" points="766.056,-50 593.981,-50 593.981,-0 766.056,-0 766.056,-50"/>
<text text-anchor="middle" x="680.019" y="-34.8" font-family="Times,serif" font-size="14.00">gini = 0.0000</text>
<text text-anchor="middle" x="680.019" y="-20.8" font-family="Times,serif" font-size="14.00">samples = 1</text>
<text text-anchor="middle" x="680.019" y="-6.8" font-family="Times,serif" font-size="14.00">value = [ 1. &#160;0. &#160;0. &#160;0. &#160;0. &#160;0.]</text>
</g>
<!-- 5&#45;&gt;7 -->
<g id="edge7" class="edge"><title>5&#45;&gt;7</title>
<path fill="none" stroke="black" d="M607.961,-85.929C618.949,-76.7905 631.613,-66.2578 643.23,-56.5963"/>
<polygon fill="black" stroke="black" points="645.621,-59.1599 651.072,-50.0745 641.145,-53.778 645.621,-59.1599"/>
</g>
<!-- 9 -->
<g id="node10" class="node"><title>9</title>
<polygon fill="none" stroke="black" points="1060.19,-136 919.844,-136 919.844,-86 1060.19,-86 1060.19,-136"/>
<text text-anchor="middle" x="990.019" y="-120.8" font-family="Times,serif" font-size="14.00">X[18] &lt;= 65.3177</text>
<text text-anchor="middle" x="990.019" y="-106.8" font-family="Times,serif" font-size="14.00">gini = 0.70068359375</text>
<text text-anchor="middle" x="990.019" y="-92.8" font-family="Times,serif" font-size="14.00">samples = 64</text>
</g>
<!-- 8&#45;&gt;9 -->
<g id="edge9" class="edge"><title>8&#45;&gt;9</title>
<path fill="none" stroke="black" d="M990.019,-171.704C990.019,-163.781 990.019,-154.829 990.019,-146.314"/>
<polygon fill="black" stroke="black" points="993.519,-146.242 990.019,-136.242 986.519,-146.242 993.519,-146.242"/>
</g>
<!-- 12 -->
<g id="node13" class="node"><title>12</title>
<polygon fill="none" stroke="black" points="1385.68,-136 1246.36,-136 1246.36,-86 1385.68,-86 1385.68,-136"/>
<text text-anchor="middle" x="1316.02" y="-120.8" font-family="Times,serif" font-size="14.00">X[18] &lt;= 72.7345</text>
<text text-anchor="middle" x="1316.02" y="-106.8" font-family="Times,serif" font-size="14.00">gini = 0.37611585003</text>
<text text-anchor="middle" x="1316.02" y="-92.8" font-family="Times,serif" font-size="14.00">samples = 71</text>
</g>
<!-- 8&#45;&gt;12 -->
<g id="edge12" class="edge"><title>8&#45;&gt;12</title>
<path fill="none" stroke="black" d="M1080.39,-172.713C1129.3,-160.111 1189.17,-144.685 1236.32,-132.535"/>
<polygon fill="black" stroke="black" points="1237.37,-135.879 1246.18,-129.995 1235.62,-129.101 1237.37,-135.879"/>
</g>
<!-- 10 -->
<g id="node11" class="node"><title>10</title>
<polygon fill="none" stroke="black" points="980.056,-50 783.981,-50 783.981,-0 980.056,-0 980.056,-50"/>
<text text-anchor="middle" x="882.019" y="-34.8" font-family="Times,serif" font-size="14.00">gini = 0.6480</text>
<text text-anchor="middle" x="882.019" y="-20.8" font-family="Times,serif" font-size="14.00">samples = 28</text>
<text text-anchor="middle" x="882.019" y="-6.8" font-family="Times,serif" font-size="14.00">value = [ &#160;0. &#160;&#160;9. &#160;13. &#160;&#160;5. &#160;&#160;1. &#160;&#160;0.]</text>
</g>
<!-- 9&#45;&gt;10 -->
<g id="edge10" class="edge"><title>9&#45;&gt;10</title>
<path fill="none" stroke="black" d="M959.07,-85.929C947.208,-76.7026 933.518,-66.0552 920.999,-56.3178"/>
<polygon fill="black" stroke="black" points="923.014,-53.4512 912.972,-50.0745 918.716,-58.9767 923.014,-53.4512"/>
</g>
<!-- 11 -->
<g id="node12" class="node"><title>11</title>
<polygon fill="none" stroke="black" points="1197.54,-50 998.494,-50 998.494,-0 1197.54,-0 1197.54,-50"/>
<text text-anchor="middle" x="1098.02" y="-34.8" font-family="Times,serif" font-size="14.00">gini = 0.6343</text>
<text text-anchor="middle" x="1098.02" y="-20.8" font-family="Times,serif" font-size="14.00">samples = 36</text>
<text text-anchor="middle" x="1098.02" y="-6.8" font-family="Times,serif" font-size="14.00">value = [ &#160;0. &#160;&#160;0. &#160;11. &#160;18. &#160;&#160;5. &#160;&#160;2.]</text>
</g>
<!-- 9&#45;&gt;11 -->
<g id="edge11" class="edge"><title>9&#45;&gt;11</title>
<path fill="none" stroke="black" d="M1020.97,-85.929C1032.83,-76.7026 1046.52,-66.0552 1059.04,-56.3178"/>
<polygon fill="black" stroke="black" points="1061.32,-58.9767 1067.07,-50.0745 1057.02,-53.4512 1061.32,-58.9767"/>
</g>
<!-- 13 -->
<g id="node14" class="node"><title>13</title>
<polygon fill="none" stroke="black" points="1416.06,-50 1215.98,-50 1215.98,-0 1416.06,-0 1416.06,-50"/>
<text text-anchor="middle" x="1316.02" y="-34.8" font-family="Times,serif" font-size="14.00">gini = 0.3105</text>
<text text-anchor="middle" x="1316.02" y="-20.8" font-family="Times,serif" font-size="14.00">samples = 65</text>
<text text-anchor="middle" x="1316.02" y="-6.8" font-family="Times,serif" font-size="14.00">value = [ &#160;0. &#160;&#160;0. &#160;53. &#160;10. &#160;&#160;2. &#160;&#160;0.]</text>
</g>
<!-- 12&#45;&gt;13 -->
<g id="edge13" class="edge"><title>12&#45;&gt;13</title>
<path fill="none" stroke="black" d="M1316.02,-85.7037C1316.02,-77.7808 1316.02,-68.829 1316.02,-60.3136"/>
<polygon fill="black" stroke="black" points="1319.52,-60.2416 1316.02,-50.2417 1312.52,-60.2417 1319.52,-60.2416"/>
</g>
<!-- 14 -->
<g id="node15" class="node"><title>14</title>
<polygon fill="none" stroke="black" points="1606.06,-50 1433.98,-50 1433.98,-0 1606.06,-0 1606.06,-50"/>
<text text-anchor="middle" x="1520.02" y="-34.8" font-family="Times,serif" font-size="14.00">gini = 0.2778</text>
<text text-anchor="middle" x="1520.02" y="-20.8" font-family="Times,serif" font-size="14.00">samples = 6</text>
<text text-anchor="middle" x="1520.02" y="-6.8" font-family="Times,serif" font-size="14.00">value = [ 0. &#160;0. &#160;1. &#160;5. &#160;0. &#160;0.]</text>
</g>
<!-- 12&#45;&gt;14 -->
<g id="edge14" class="edge"><title>12&#45;&gt;14</title>
<path fill="none" stroke="black" d="M1374.48,-85.929C1398.7,-75.9557 1426.95,-64.322 1452.09,-53.9722"/>
<polygon fill="black" stroke="black" points="1453.64,-57.1185 1461.55,-50.0745 1450.97,-50.6457 1453.64,-57.1185"/>
</g>
</g>
</svg>
